HIERARCHY
ROOT RootJoint
{
    OFFSET   0.000000   0.000000   0.000000
    CHANNELS 6 Xposition Yposition Zposition Xrotation Yrotation Zrotation
    JOINT pelvis_lowerback
    {
        OFFSET   0.000000   0.093605   0.000000
        CHANNELS 3 Xrotation Yrotation Zrotation
        JOINT lowerback_torso
        {
            OFFSET   0.000000   0.100000   0.000000
            CHANNELS 3 Xrotation Yrotation Zrotation
            JOINT torso_head
            {
                OFFSET   0.000000   0.282350   0.000000
                CHANNELS 3 Xrotation Yrotation Zrotation
                End Site
                {
                    OFFSET   0.000000   0.192650   0.000000
                }
            }
            JOINT rTorso_Clavicle
            {
                OFFSET  -0.001000   0.157500   0.000000
                CHANNELS 3 Xrotation Yrotation Zrotation
                JOINT rShoulder
                {
                    OFFSET  -0.117647   0.000000   0.000000
                    CHANNELS 3 Xrotation Yrotation Zrotation
                    JOINT rElbow
                    {
                        OFFSET  -0.245000   0.000000   0.000000
                        CHANNELS 3 Xrotation Yrotation Zrotation
                        JOINT rWrist
                        {
                            OFFSET  -0.240000   0.000000   0.000000
                            CHANNELS 3 Xrotation Yrotation Zrotation
                            End Site
                            {
                                OFFSET  -0.116353  -0.002500   0.000000
                            }
                        }
                    }
                }
            }
            JOINT lTorso_Clavicle
            {
                OFFSET   0.001000   0.157500   0.000000
                CHANNELS 3 Xrotation Yrotation Zrotation
                JOINT lShoulder
                {
                    OFFSET   0.117647   0.000000   0.000000
                    CHANNELS 3 Xrotation Yrotation Zrotation
                    JOINT lElbow
                    {
                        OFFSET   0.245000   0.000000   0.000000
                        CHANNELS 3 Xrotation Yrotation Zrotation
                        JOINT lWrist
                        {
                            OFFSET   0.240000   0.000000   0.000000
                            CHANNELS 3 Xrotation Yrotation Zrotation
                            End Site
                            {
                                OFFSET   0.116353  -0.002500   0.000000
                            }
                        }
                    }
                }
            }
        }
    }
    JOINT rHip
    {
        OFFSET  -0.100000  -0.051395   0.000000
        CHANNELS 3 Xrotation Yrotation Zrotation
        JOINT rKnee
        {
            OFFSET   0.000000  -0.410000   0.000000
            CHANNELS 3 Xrotation Yrotation Zrotation
            JOINT rAnkle
            {
                OFFSET   0.000000  -0.390000   0.000000
                CHANNELS 3 Xrotation Yrotation Zrotation
                JOINT rToeJoint
                {
                    OFFSET   0.000000  -0.050000   0.130000
                    CHANNELS 3 Xrotation Yrotation Zrotation
                    End Site
                    {
                        OFFSET  -0.010000   0.002000   0.060000
                    }
                }
            }
        }
    }
    JOINT lHip
    {
        OFFSET   0.100000  -0.051395   0.000000
        CHANNELS 3 Xrotation Yrotation Zrotation
        JOINT lKnee
        {
            OFFSET   0.000000  -0.410000   0.000000
            CHANNELS 3 Xrotation Yrotation Zrotation
            JOINT lAnkle
            {
                OFFSET   0.000000  -0.390000   0.000000
                CHANNELS 3 Xrotation Yrotation Zrotation
                JOINT lToeJoint
                {
                    OFFSET   0.000000  -0.050000   0.130000
                    CHANNELS 3 Xrotation Yrotation Zrotation
                    End Site
                    {
                        OFFSET   0.010000   0.002000   0.060000
                    }
                }
            }
        }
    }
}
MOTION
Frames: 11
Frame Time:   0.008333
 -2.347134   1.011151   4.032354   7.218430  -6.570639 -12.863320  -1.374415   1.112691  14.100626  -3.885296  -1.408802   2.669299  -6.444283  -1.382390  -2.573049   5.612301  -3.393939  -6.960012   6.471760   5.673731  48.705959   0.002205  24.490639  -0.001532   4.372691   0.665529  -5.601611   8.562839   7.767982   2.256732  13.406177  -7.157758 -49.792726  -0.004418 -22.784251  -0.003671   1.834616  -7.554650   3.745112 -20.078280  -4.515614   8.286770  40.575793   0.010370   0.013129   1.669260  -7.491267   7.779602   2.253786  -0.009583  -0.008076 -24.537887   1.448128  17.989076  29.656557   0.017788   0.001856  37.442722   5.131971  -3.500178 -33.127009   0.021890  -0.011691
 -2.345582   1.023761   4.034704   7.296948  -6.817415 -11.997331  -2.313883   1.293698  13.125804  -3.650499  -1.490259   3.040580  -6.209658  -1.126579  -2.521701   5.887400  -3.522323  -6.464289   6.785309   5.699533  48.190860   0.001301  24.276557  -0.001207   4.437738   0.539429  -6.080425   8.974713   7.635051   1.898893  13.888544  -6.954294 -49.294733  -0.002902 -22.551750  -0.003027   1.802789  -7.226527   4.115091 -19.412152  -4.319969   7.207829  39.199582   0.007407   0.017749   3.490593  -7.311867   8.228138   2.700448  -0.008857  -0.008611 -23.682567   1.892223  16.844737  28.480040   0.012341   0.007499  34.816516   5.243195  -3.910146 -28.005060   0.049530  -0.024344
 -2.344075   1.035782   4.036213   7.355202  -7.009708 -10.835132  -3.031412   1.502314  11.876963  -3.343740  -1.606193   3.151014  -5.975871  -0.865167  -2.523825   6.145405  -3.577053  -5.727029   7.054185   5.780809  47.898259   0.000125  24.086800  -0.000635   4.509064   0.480728  -6.325170   9.275689   7.355098   1.442810  14.246149  -6.845737 -48.868750  -0.002563 -22.347111  -0.003114   1.770070  -6.803272   4.487287 -18.878645  -4.046813   5.760338  37.597687   0.003430   0.022249   5.195016  -7.138462   8.637772   3.212325  -0.008226  -0.009040 -22.976653   2.346476  15.467969  27.756134   0.008895   0.009289  32.329851   5.355921  -4.292210 -23.663991   0.062536  -0.034621
 -2.342793   1.047180   4.037170   7.406166  -7.190179  -9.660584  -3.598185   1.703505  10.611100  -2.998277  -1.743798   3.151342  -5.737815  -0.619296  -2.555415   6.389344  -3.592123  -4.914904   7.294063   5.890288  47.725168  -0.000875  23.920239  -0.000113   4.586678   0.492240  -6.338678   9.510463   7.021332   0.911204  14.526233  -6.804354 -48.549450  -0.002698 -22.182298  -0.003371   1.746237  -6.492230   4.716950 -18.476672  -3.785765   4.285333  35.977922  -0.000314   0.025385   6.779527  -6.967896   9.014511   3.679897  -0.007572  -0.008947 -22.328562   2.762719  14.192298  27.159186   0.006812   0.009734  30.014257   5.474749  -4.648192 -19.703131   0.065787  -0.041166
 -2.341744   1.057918   4.037753   7.454792  -7.359350  -8.528872  -4.055762   1.882680   9.372139  -2.636523  -1.901619   3.092575  -5.501771  -0.390453  -2.597497   6.622156  -3.591856  -4.088400   7.516197   6.007397  47.618330  -0.001615  23.768936   0.000281   4.666259   0.540391  -6.214115   9.699358   6.664257   0.331612  14.753440  -6.807838 -48.314508  -0.002940 -22.047371  -0.003594   1.732058  -6.293350   4.809361 -18.186739  -3.550535   2.852534  34.411137  -0.003474   0.027070   8.253797  -6.800007   9.361956   4.100201  -0.006906  -0.008506 -21.710764   3.134457  13.064213  26.619631   0.005626   0.009528  27.854789   5.599414  -4.978060 -16.076700   0.062804  -0.044058
 -2.340904   1.067967   4.038081   7.502443  -7.514166  -7.450806  -4.432597   2.034317   8.171215  -2.272029  -2.078236   2.992803  -5.272071  -0.177765  -2.643461   6.846600  -3.589832  -3.278271   7.727444   6.120711  47.549470  -0.002111  23.627747   0.000543   4.744091   0.597482  -6.014558   9.853277   6.299285  -0.270951  14.941804  -6.841336 -48.141360  -0.003141 -21.934743  -0.003720   1.725594  -6.177699   4.797816 -17.985647  -3.337794   1.478412  32.917762  -0.006007   0.027538   9.626366  -6.635507   9.682616   4.478365  -0.006235  -0.007861 -21.113056   3.466000  12.077620  26.122456   0.005022   0.008944  25.840123   5.727972  -5.282909 -12.755055   0.056356  -0.043897
 -2.340240   1.077311   4.038233   7.549528  -7.654142  -6.427325  -4.748912   2.157633   7.012169  -1.913311  -2.271041   2.861292  -5.051308   0.019931  -2.690900   7.064290  -3.592791  -2.501604   7.931439   6.224387  47.501801  -0.002400  23.493742   0.000689   4.818086   0.647037  -5.777873   9.979264   5.935542  -0.877980  15.100338  -6.894775 -48.012789  -0.003254 -21.839259  -0.003744   1.724760  -6.121496   4.713460 -17.854062  -3.142425   0.167140  31.502855  -0.007942   0.027090  10.904725  -6.475155   9.978606   4.819357  -0.005575  -0.007117 -20.531075   3.762807  11.217264  25.663594   0.004771   0.008148  23.960424   5.858488  -5.564145  -9.711688   0.048332  -0.041499
 -2.339848   1.085826   4.037908   7.351116  -7.793891  -5.654155  -4.549874   2.264953   6.089175  -1.714907  -2.349879   2.686485  -4.856212   0.146434  -2.635396   7.067300  -3.607066  -1.709318   8.211254   6.290129  47.238052  -0.001575  23.600642   0.000374   4.834441   0.455367  -5.437378   9.851088   5.577532  -1.381410  15.094636  -6.774912 -47.818491  -0.003078 -21.747760  -0.003418   1.719737  -6.045402   4.380892 -17.614143  -2.829586  -0.825848  30.590926  -0.008342   0.023281  11.469794  -6.104206  10.022944   4.826488  -0.004458  -0.005681 -19.801663   4.041408  10.646438  25.190780   0.004772   0.007165  23.256910   5.754791  -5.600360  -8.447086   0.036242  -0.036817
 -2.339565   1.093575   4.037391   7.148043  -7.903643  -4.966452  -4.321085   2.351263   5.232642  -1.505818  -2.428854   2.526558  -4.659881   0.262948  -2.578178   7.040557  -3.593818  -1.012850   8.447584   6.363264  46.950039  -0.001017  23.714519   0.000101   4.854828   0.325514  -5.193220   9.693994   5.210695  -1.806870  15.060985  -6.674492 -47.592397  -0.002785 -21.671816  -0.003077   1.710028  -6.004143   4.146234 -17.386385  -2.539101  -1.705659  29.813989  -0.008203   0.019598  11.992869  -5.754115  10.061058   4.791052  -0.003598  -0.004602 -19.133837   4.280507  10.165690  24.740066   0.004744   0.006161  22.610423   5.658087  -5.635250  -7.239759   0.026784  -0.032103
 -2.339334   1.100585   4.036777   6.958202  -7.994586  -4.329408  -4.091362   2.425537   4.422661  -1.302475  -2.507565   2.371534  -4.471031   0.371591  -2.525214   6.999803  -3.565813  -0.394365   8.655391   6.437095  46.655545  -0.000662  23.826791  -0.000111   4.878367   0.233746  -5.019988   9.528640   4.849919  -2.173054  15.016308  -6.586929 -47.353650  -0.002465 -21.606238  -0.002744   1.703685  -5.992158   3.984840 -17.167076  -2.272030  -2.515111  29.103910  -0.007827   0.016378  12.481333  -5.426652  10.093778   4.759392  -0.002907  -0.003734 -18.526034   4.492909   9.732679  24.307523   0.004668   0.005235  22.006818   5.568461  -5.668680  -6.132110   0.019533  -0.027621
 -2.339132   1.106874   4.036114   6.784023  -8.075734  -3.733233  -3.868904   2.491837   3.656407  -1.110477  -2.582524   2.218999  -4.292593   0.473065  -2.476914   6.951694  -3.530607   0.159759   8.841892   6.508405  46.362221  -0.000447  23.934954  -0.000265   4.903082   0.163439  -4.896715   9.363506   4.503813  -2.495223  14.967562  -6.507935 -47.113417  -0.002159 -21.547754  -0.002433   1.699399  -5.996476   3.871292 -16.954544  -2.025653  -3.266378  28.445156  -0.007319   0.013645  12.937060  -5.120675  10.121694   4.730870  -0.002351  -0.003033 -17.970776   4.683887   9.335474  23.895506   0.004545   0.004421  21.443101   5.485186  -5.700681  -5.117866   0.013994  -0.023564
